# xmcd CD database file
#
# Track frame offsets:
#	150
#	24675
#	40272
#	57862
#	74587
#	89700
#	118235
#	139622
#	161395
#	180177
#	200442
#	223805
#	244835
#	267010
#	281635
#	298585
#	319960
#
# Disc length: 4547 seconds
#
# Revision: 2
# Processed by: cddbd v1.5.2PL0 Copyright (c) Steve Scherf et al.
# Submitted via: CDex 1.51
#
DISCID=0911c111
DTITLE=Various Artist - Zydeco - The Essential Collection
DYEAR=2003
DGENRE=Zydeco
TTITLE0=Let's Go - Nathan and the Zydeco Cha Chas
TTITLE1=C;est pas la peine brailler (Thre's no use crying) - Geno Delafose and French Rockin' Boogie
TTITLE2=Zydeco Boogaloo - Buckwheat Zydeco
TTITLE3=Lula Lula Don't You Go to Bingo - Boozoo Chavis and the Magic Sounds
TTITLE4=J'ai reveille a ce matin (I woke up thuis morning) - Steve Riley and the Mamou Playboys
TTITLE5=I'm On the Wonder - Beau Jocque and the Zydeco Hi-Rollers
TTITLE6=We Are the Boys - Chris Ardoin and Double Clutchin'
TTITLE7=I'm a Hog For You - Lynn August and the Hot August Nights
TTITLE8=Madame Etienne - Bruce Daigrepont
TTITLE9=Bad Time Woman - Li'l Brian and the Zydeco Travelers
TTITLE10=What's in That Bayou? - Chris Ardoin and Double Clutchin'
TTITLE11=Keep Your Dress Tail Down - Boozoo Chavis and the Magic Sounds
TTITLE12=Give Him Cornbread - Beau Jocque and the Zydeco Hi-Rollers
TTITLE13=Friday Night Waltz - John Delafose and the Eunice Playboys
TTITLE14=Outside People - Nathan and the Zydeco Cha Chas
TTITLE15='Tite monde (My everything) - Geno Delafose and French Rockin' Boogie
TTITLE16=Hot Tamale Baby - Buckwheat Zydeco
EXTD=YEAR: 2003
EXTT0=
EXTT1=
EXTT2=
EXTT3=
EXTT4=
EXTT5=
EXTT6=
EXTT7=
EXTT8=
EXTT9=
EXTT10=
EXTT11=
EXTT12=
EXTT13=
EXTT14=
EXTT15=
EXTT16=
PLAYORDER=
